<svg width="500" height="400" viewBox="0 0 500 400" xmlns="http://www.w3.org/2000/svg">
  <!-- Background -->
  <rect width="500" height="400" fill="#f8fafc" rx="12"/>
  
  <!-- Main Dashboard Container -->
  <rect x="75" y="60" width="350" height="240" rx="12" fill="#ffffff" stroke="#e5e7eb" stroke-width="2"/>
  
  <!-- Dashboard Header -->
  <rect x="75" y="60" width="350" height="45" rx="12" fill="#10b77f"/>
  <rect x="75" y="93" width="350" height="12" fill="#10b77f"/>
  
  <!-- WhatsStore Logo/Title -->
  <text x="250" y="85" font-family="Arial, sans-serif" font-size="18" font-weight="700" fill="#ffffff" text-anchor="middle">WhatsStore Dashboard</text>
  
  <!-- Navigation Menu -->
  <rect x="95" y="120" width="50" height="6" rx="2" fill="#10b77f" opacity="0.3"/>
  <rect x="155" y="120" width="40" height="6" rx="2" fill="#e5e7eb"/>
  <rect x="205" y="120" width="35" height="6" rx="2" fill="#e5e7eb"/>
  <rect x="250" y="120" width="45" height="6" rx="2" fill="#e5e7eb"/>
  
  <!-- Store Cards Grid -->
  <!-- Store 1 -->
  <rect x="95" y="140" width="90" height="45" rx="6" fill="#dcfce7" stroke="#10b77f" stroke-width="1"/>
  <rect x="100" y="145" width="12" height="12" rx="2" fill="#10b77f"/>
  <text x="118" y="153" font-family="Arial, sans-serif" font-size="9" font-weight="600" fill="#15803d">Fashion</text>
  <text x="118" y="163" font-family="Arial, sans-serif" font-size="7" fill="#059669">Active</text>
  <rect x="100" y="170" width="20" height="3" rx="1" fill="#10b77f" opacity="0.6"/>
  <rect x="125" y="170" width="15" height="3" rx="1" fill="#10b77f" opacity="0.4"/>
  
  <!-- Store 2 -->
  <rect x="195" y="140" width="90" height="45" rx="6" fill="#dbeafe" stroke="#3b82f6" stroke-width="1"/>
  <rect x="200" y="145" width="12" height="12" rx="2" fill="#3b82f6"/>
  <text x="218" y="153" font-family="Arial, sans-serif" font-size="9" font-weight="600" fill="#1e40af">Electronics</text>
  <text x="218" y="163" font-family="Arial, sans-serif" font-size="7" fill="#2563eb">Active</text>
  <rect x="200" y="170" width="25" height="3" rx="1" fill="#3b82f6" opacity="0.6"/>
  <rect x="230" y="170" width="12" height="3" rx="1" fill="#3b82f6" opacity="0.4"/>
  
  <!-- Store 3 -->
  <rect x="295" y="140" width="90" height="45" rx="6" fill="#fef3c7" stroke="#f59e0b" stroke-width="1"/>
  <rect x="300" y="145" width="12" height="12" rx="2" fill="#f59e0b"/>
  <text x="318" y="153" font-family="Arial, sans-serif" font-size="9" font-weight="600" fill="#d97706">Home Decor</text>
  <text x="318" y="163" font-family="Arial, sans-serif" font-size="7" fill="#d97706">Active</text>
  <rect x="300" y="170" width="18" height="3" rx="1" fill="#f59e0b" opacity="0.6"/>
  <rect x="323" y="170" width="20" height="3" rx="1" fill="#f59e0b" opacity="0.4"/>
  
  <!-- Store 4 -->
  <rect x="95" y="195" width="90" height="45" rx="6" fill="#fce7f3" stroke="#ec4899" stroke-width="1"/>
  <rect x="100" y="200" width="12" height="12" rx="2" fill="#ec4899"/>
  <text x="118" y="208" font-family="Arial, sans-serif" font-size="9" font-weight="600" fill="#be185d">Bakery</text>
  <text x="118" y="218" font-family="Arial, sans-serif" font-size="7" fill="#be185d">Active</text>
  <rect x="100" y="225" width="28" height="3" rx="1" fill="#ec4899" opacity="0.6"/>
  <rect x="133" y="225" width="8" height="3" rx="1" fill="#ec4899" opacity="0.4"/>
  
  <!-- Store 5 -->
  <rect x="195" y="195" width="90" height="45" rx="6" fill="#e0e7ff" stroke="#6366f1" stroke-width="1"/>
  <rect x="200" y="200" width="12" height="12" rx="2" fill="#6366f1"/>
  <text x="218" y="208" font-family="Arial, sans-serif" font-size="9" font-weight="600" fill="#4338ca">Market</text>
  <text x="218" y="218" font-family="Arial, sans-serif" font-size="7" fill="#4338ca">Active</text>
  <rect x="200" y="225" width="22" height="3" rx="1" fill="#6366f1" opacity="0.6"/>
  <rect x="227" y="225" width="13" height="3" rx="1" fill="#6366f1" opacity="0.4"/>
  
  <!-- Store 6 -->
  <rect x="295" y="195" width="90" height="45" rx="6" fill="#fed7d7" stroke="#f56565" stroke-width="1"/>
  <rect x="300" y="200" width="12" height="12" rx="2" fill="#f56565"/>
  <text x="318" y="208" font-family="Arial, sans-serif" font-size="9" font-weight="600" fill="#c53030">Toys</text>
  <text x="318" y="218" font-family="Arial, sans-serif" font-size="7" fill="#c53030">Active</text>
  <rect x="300" y="225" width="18" height="3" rx="1" fill="#f56565" opacity="0.6"/>
  <rect x="323" y="225" width="18" height="3" rx="1" fill="#f56565" opacity="0.4"/>
  
  <!-- Side Analytics Panel -->
  <rect x="435" y="80" width="50" height="120" rx="6" fill="#ffffff" stroke="#e5e7eb" stroke-width="1"/>
  <text x="460" y="95" font-family="Arial, sans-serif" font-size="8" font-weight="600" fill="#374151" text-anchor="middle">Analytics</text>
  
  <!-- Sales Chart -->
  <rect x="440" y="105" width="40" height="18" rx="2" fill="#f3f4f6"/>
  <text x="460" y="102" font-family="Arial, sans-serif" font-size="5" fill="#6b7280" text-anchor="middle">Sales</text>
  <path d="M445 118 L448 115 L451 117 L454 113 L457 115 L460 112 L463 114 L466 111 L469 113 L472 110 L475 112" stroke="#10b77f" stroke-width="1.5" fill="none"/>
  
  <!-- Orders Chart -->
  <rect x="440" y="130" width="40" height="18" rx="2" fill="#f3f4f6"/>
  <text x="460" y="127" font-family="Arial, sans-serif" font-size="5" fill="#6b7280" text-anchor="middle">Orders</text>
  <rect x="443" y="142" width="3" height="4" fill="#3b82f6"/>
  <rect x="447" y="140" width="3" height="6" fill="#3b82f6"/>
  <rect x="451" y="138" width="3" height="8" fill="#3b82f6"/>
  <rect x="455" y="141" width="3" height="5" fill="#3b82f6"/>
  <rect x="459" y="139" width="3" height="7" fill="#3b82f6"/>
  <rect x="463" y="143" width="3" height="3" fill="#3b82f6"/>
  <rect x="467" y="140" width="3" height="6" fill="#3b82f6"/>
  <rect x="471" y="142" width="3" height="4" fill="#3b82f6"/>
  
  <!-- Revenue Chart -->
  <rect x="440" y="155" width="40" height="18" rx="2" fill="#f3f4f6"/>
  <text x="460" y="152" font-family="Arial, sans-serif" font-size="5" fill="#6b7280" text-anchor="middle">Revenue</text>
  <circle cx="460" cy="164" r="6" fill="none" stroke="#f59e0b" stroke-width="1.5"/>
  <path d="M460 158 L466 164 L460 170 L454 164 Z" fill="#f59e0b" opacity="0.3"/>
  
  <!-- Users Stats -->
  <rect x="440" y="180" width="40" height="15" rx="2" fill="#10b77f" opacity="0.1"/>
  <text x="460" y="185" font-family="Arial, sans-serif" font-size="6" font-weight="600" fill="#10b77f" text-anchor="middle">15K+</text>
  <text x="460" y="192" font-family="Arial, sans-serif" font-size="4" fill="#059669" text-anchor="middle">Active Users</text>
  
  <!-- Title -->
  <text x="250" y="30" font-family="Arial, sans-serif" font-size="18" font-weight="700" fill="#1f2937" text-anchor="middle">WhatsStore SaaS Platform</text>
  <text x="250" y="45" font-family="Arial, sans-serif" font-size="11" fill="#6b7280" text-anchor="middle">Multi-Store Management Dashboard</text>
  
  <!-- Bottom Features -->
  <rect x="50" y="330" width="400" height="45" rx="8" fill="#ffffff" stroke="#e5e7eb"/>
  
  <!-- Feature 1 -->
  <g>
    <circle cx="125" cy="345" r="8" fill="#10b77f" opacity="0.1"/>
    <rect x="121" y="341" width="8" height="8" rx="1" fill="#10b77f"/>
    <text x="125" y="358" font-family="Arial, sans-serif" font-size="6" font-weight="600" fill="#374151" text-anchor="middle">Multi-Store</text>
    <text x="125" y="366" font-family="Arial, sans-serif" font-size="5" fill="#6b7280" text-anchor="middle">Management</text>
  </g>
  
  <!-- Feature 2 -->
  <g>
    <circle cx="200" cy="345" r="8" fill="#3b82f6" opacity="0.1"/>
    <circle cx="200" cy="345" r="4" fill="#3b82f6"/>
    <text x="200" y="358" font-family="Arial, sans-serif" font-size="6" font-weight="600" fill="#374151" text-anchor="middle">Analytics</text>
    <text x="200" y="366" font-family="Arial, sans-serif" font-size="5" fill="#6b7280" text-anchor="middle">Real-time</text>
  </g>
  
  <!-- Feature 3 -->
  <g>
    <circle cx="275" cy="345" r="8" fill="#f59e0b" opacity="0.1"/>
    <rect x="271" y="341" width="8" height="8" rx="1" fill="#f59e0b"/>
    <text x="275" y="358" font-family="Arial, sans-serif" font-size="6" font-weight="600" fill="#374151" text-anchor="middle">Easy Setup</text>
    <text x="275" y="366" font-family="Arial, sans-serif" font-size="5" fill="#6b7280" text-anchor="middle">Quick Start</text>
  </g>
  
  <!-- Feature 4 -->
  <g>
    <circle cx="350" cy="345" r="8" fill="#ec4899" opacity="0.1"/>
    <path d="M346 341 L354 341 L354 349 L346 349 Z M350 337 L350 341" stroke="#ec4899" stroke-width="1" fill="none"/>
    <text x="350" y="358" font-family="Arial, sans-serif" font-size="6" font-weight="600" fill="#374151" text-anchor="middle">Support</text>
    <text x="350" y="366" font-family="Arial, sans-serif" font-size="5" fill="#6b7280" text-anchor="middle">24/7 Help</text>
  </g>
</svg>