<svg width="600" height="400" viewBox="0 0 600 400" xmlns="http://www.w3.org/2000/svg">
  <!-- Background -->
  <rect width="600" height="400" fill="#f1f5f9" rx="20"/>
  
  <!-- Main Dashboard Container -->
  <rect x="30" y="30" width="540" height="340" fill="#ffffff" rx="16" stroke="#e2e8f0" stroke-width="2"/>
  
  <!-- Header -->
  <rect x="30" y="30" width="540" height="60" fill="#10b77f" rx="16 16 0 0"/>
  <text x="50" y="65" font-family="Arial, sans-serif" font-size="18" font-weight="bold" fill="#ffffff">WhatsStore Dashboard</text>
  <circle cx="520" cy="60" r="15" fill="#ffffff" fill-opacity="0.2"/>
  <circle cx="520" cy="60" r="8" fill="#ffffff"/>
  
  <!-- Stats Row -->
  <rect x="50" y="110" width="150" height="80" fill="#dcfce7" rx="12"/>
  <text x="125" y="135" font-family="Arial, sans-serif" font-size="28" font-weight="bold" fill="#15803d" text-anchor="middle">156</text>
  <text x="125" y="155" font-family="Arial, sans-serif" font-size="14" fill="#64748b" text-anchor="middle">Total Stores</text>
  <text x="125" y="175" font-family="Arial, sans-serif" font-size="12" fill="#10b77f" text-anchor="middle">↗ +23%</text>
  
  <rect x="220" y="110" width="150" height="80" fill="#ecfdf5" rx="12"/>
  <text x="295" y="135" font-family="Arial, sans-serif" font-size="28" font-weight="bold" fill="#047857" text-anchor="middle">$47K</text>
  <text x="295" y="155" font-family="Arial, sans-serif" font-size="14" fill="#64748b" text-anchor="middle">Revenue</text>
  <text x="295" y="175" font-family="Arial, sans-serif" font-size="12" fill="#10b77f" text-anchor="middle">↗ +18%</text>
  
  <rect x="390" y="110" width="150" height="80" fill="#f0fdf4" rx="12"/>
  <text x="465" y="135" font-family="Arial, sans-serif" font-size="28" font-weight="bold" fill="#166534" text-anchor="middle">2.4K</text>
  <text x="465" y="155" font-family="Arial, sans-serif" font-size="14" fill="#64748b" text-anchor="middle">Orders</text>
  <text x="465" y="175" font-family="Arial, sans-serif" font-size="12" fill="#10b77f" text-anchor="middle">↗ +12%</text>
  
  <!-- Chart Area -->
  <rect x="50" y="210" width="490" height="140" fill="#f8fafc" rx="12"/>
  <text x="295" y="235" font-family="Arial, sans-serif" font-size="16" font-weight="bold" fill="#1f2937" text-anchor="middle">Store Management</text>
  
  <!-- Store 1 -->
  <rect x="70" y="250" width="450" height="25" fill="#ffffff" rx="6" stroke="#e5e7eb" stroke-width="1"/>
  <circle cx="85" cy="262" r="8" fill="#10b77f"/>
  <text x="85" y="267" font-family="Arial, sans-serif" font-size="10" fill="#ffffff" text-anchor="middle">F</text>
  <text x="105" y="267" font-family="Arial, sans-serif" font-size="12" fill="#1f2937">Fashion Boutique</text>
  
  <!-- View Icon -->
  <circle cx="350" cy="262" r="8" fill="#3b82f6"/>
  <svg x="346" y="258" width="8" height="8" viewBox="0 0 24 24" fill="none">
    <path d="M1 12s4-8 11-8 11 8 11 8-4 8-11 8-11-8-11-8z" stroke="#ffffff" stroke-width="2"/>
    <circle cx="12" cy="12" r="3" stroke="#ffffff" stroke-width="2"/>
  </svg>
  
  <!-- Edit Icon -->
  <circle cx="370" cy="262" r="8" fill="#10b77f"/>
  <svg x="366" y="258" width="8" height="8" viewBox="0 0 24 24" fill="none">
    <path d="M11 4H4a2 2 0 0 0-2 2v14a2 2 0 0 0 2 2h14a2 2 0 0 0 2-2v-7" stroke="#ffffff" stroke-width="2"/>
    <path d="m18.5 2.5-8 8v4h4l8-8a2 2 0 0 0 0-3z" stroke="#ffffff" stroke-width="2"/>
  </svg>
  
  <!-- Settings Icon -->
  <circle cx="390" cy="262" r="8" fill="#f59e0b"/>
  <svg x="386" y="258" width="8" height="8" viewBox="0 0 24 24" fill="none">
    <circle cx="12" cy="12" r="3" stroke="#ffffff" stroke-width="2"/>
    <path d="m12 1 3 6 6-3-3 6 6 3-6 3 3 6-6-3-3 6-3-6-6 3 3-6-6-3 6-3-3-6 6 3z" stroke="#ffffff" stroke-width="2"/>
  </svg>
  
  <!-- Delete Icon -->
  <circle cx="410" cy="262" r="8" fill="#ef4444"/>
  <svg x="406" y="258" width="8" height="8" viewBox="0 0 24 24" fill="none">
    <polyline points="3,6 5,6 21,6" stroke="#ffffff" stroke-width="2"/>
    <path d="m19 6v14a2 2 0 0 1-2 2H7a2 2 0 0 1-2-2V6m3 0V4a2 2 0 0 1 2-2h4a2 2 0 0 1 2 2v2" stroke="#ffffff" stroke-width="2"/>
  </svg>
  
  <rect x="440" y="255" width="40" height="15" fill="#dcfce7" rx="8"/>
  <text x="460" y="265" font-family="Arial, sans-serif" font-size="10" fill="#15803d" text-anchor="middle">Active</text>
  
  <!-- Store 2 -->
  <rect x="70" y="280" width="450" height="25" fill="#ffffff" rx="6" stroke="#e5e7eb" stroke-width="1"/>
  <circle cx="85" cy="292" r="8" fill="#059669"/>
  <text x="85" y="297" font-family="Arial, sans-serif" font-size="10" fill="#ffffff" text-anchor="middle">E</text>
  <text x="105" y="297" font-family="Arial, sans-serif" font-size="12" fill="#1f2937">Electronics Hub</text>
  
  <!-- View Icon -->
  <circle cx="350" cy="292" r="8" fill="#3b82f6"/>
  <svg x="346" y="288" width="8" height="8" viewBox="0 0 24 24" fill="none">
    <path d="M1 12s4-8 11-8 11 8 11 8-4 8-11 8-11-8-11-8z" stroke="#ffffff" stroke-width="2"/>
    <circle cx="12" cy="12" r="3" stroke="#ffffff" stroke-width="2"/>
  </svg>
  
  <!-- Edit Icon -->
  <circle cx="370" cy="292" r="8" fill="#10b77f"/>
  <svg x="366" y="288" width="8" height="8" viewBox="0 0 24 24" fill="none">
    <path d="M11 4H4a2 2 0 0 0-2 2v14a2 2 0 0 0 2 2h14a2 2 0 0 0 2-2v-7" stroke="#ffffff" stroke-width="2"/>
    <path d="m18.5 2.5-8 8v4h4l8-8a2 2 0 0 0 0-3z" stroke="#ffffff" stroke-width="2"/>
  </svg>
  
  <!-- Settings Icon -->
  <circle cx="390" cy="292" r="8" fill="#f59e0b"/>
  <svg x="386" y="288" width="8" height="8" viewBox="0 0 24 24" fill="none">
    <circle cx="12" cy="12" r="3" stroke="#ffffff" stroke-width="2"/>
    <path d="m12 1 3 6 6-3-3 6 6 3-6 3 3 6-6-3-3 6-3-6-6 3 3-6-6-3 6-3-3-6 6 3z" stroke="#ffffff" stroke-width="2"/>
  </svg>
  
  <!-- Delete Icon -->
  <circle cx="410" cy="292" r="8" fill="#ef4444"/>
  <svg x="406" y="288" width="8" height="8" viewBox="0 0 24 24" fill="none">
    <polyline points="3,6 5,6 21,6" stroke="#ffffff" stroke-width="2"/>
    <path d="m19 6v14a2 2 0 0 1-2 2H7a2 2 0 0 1-2-2V6m3 0V4a2 2 0 0 1 2-2h4a2 2 0 0 1 2 2v2" stroke="#ffffff" stroke-width="2"/>
  </svg>
  
  <rect x="440" y="285" width="40" height="15" fill="#dcfce7" rx="8"/>
  <text x="460" y="295" font-family="Arial, sans-serif" font-size="10" fill="#15803d" text-anchor="middle">Active</text>
  
  <!-- Store 3 -->
  <rect x="70" y="310" width="450" height="25" fill="#ffffff" rx="6" stroke="#e5e7eb" stroke-width="1"/>
  <circle cx="85" cy="322" r="8" fill="#047857"/>
  <text x="85" y="327" font-family="Arial, sans-serif" font-size="10" fill="#ffffff" text-anchor="middle">H</text>
  <text x="105" y="327" font-family="Arial, sans-serif" font-size="12" fill="#1f2937">Home Essentials</text>
  
  <!-- View Icon -->
  <circle cx="350" cy="322" r="8" fill="#3b82f6"/>
  <svg x="346" y="318" width="8" height="8" viewBox="0 0 24 24" fill="none">
    <path d="M1 12s4-8 11-8 11 8 11 8-4 8-11 8-11-8-11-8z" stroke="#ffffff" stroke-width="2"/>
    <circle cx="12" cy="12" r="3" stroke="#ffffff" stroke-width="2"/>
  </svg>
  
  <!-- Edit Icon -->
  <circle cx="370" cy="322" r="8" fill="#10b77f"/>
  <svg x="366" y="318" width="8" height="8" viewBox="0 0 24 24" fill="none">
    <path d="M11 4H4a2 2 0 0 0-2 2v14a2 2 0 0 0 2 2h14a2 2 0 0 0 2-2v-7" stroke="#ffffff" stroke-width="2"/>
    <path d="m18.5 2.5-8 8v4h4l8-8a2 2 0 0 0 0-3z" stroke="#ffffff" stroke-width="2"/>
  </svg>
  
  <!-- Settings Icon -->
  <circle cx="390" cy="322" r="8" fill="#f59e0b"/>
  <svg x="386" y="318" width="8" height="8" viewBox="0 0 24 24" fill="none">
    <circle cx="12" cy="12" r="3" stroke="#ffffff" stroke-width="2"/>
    <path d="m12 1 3 6 6-3-3 6 6 3-6 3 3 6-6-3-3 6-3-6-6 3 3-6-6-3 6-3-3-6 6 3z" stroke="#ffffff" stroke-width="2"/>
  </svg>
  
  <!-- Delete Icon -->
  <circle cx="410" cy="322" r="8" fill="#ef4444"/>
  <svg x="406" y="318" width="8" height="8" viewBox="0 0 24 24" fill="none">
    <polyline points="3,6 5,6 21,6" stroke="#ffffff" stroke-width="2"/>
    <path d="m19 6v14a2 2 0 0 1-2 2H7a2 2 0 0 1-2-2V6m3 0V4a2 2 0 0 1 2-2h4a2 2 0 0 1 2 2v2" stroke="#ffffff" stroke-width="2"/>
  </svg>
  
  <rect x="440" y="315" width="40" height="15" fill="#fef3c7" rx="8"/>
  <text x="460" y="325" font-family="Arial, sans-serif" font-size="10" fill="#d97706" text-anchor="middle">Pending</text>
</svg>